<svg width="100" height="100" viewBox="0 0 100 100" fill="none" xmlns="http://www.w3.org/2000/svg">
<path d="M21.0486 78H8.95859C7.97059 78 7.24259 77.792 6.77459 77.376C6.35859 76.908 6.15059 76.18 6.15059 75.192V24.648C6.15059 23.66 6.35859 22.958 6.77459 22.542C7.24259 22.074 7.97059 21.84 8.95859 21.84H32.8266C39.8986 21.84 44.7346 23.244 47.3346 26.052C49.9346 28.86 51.2346 32.526 51.2346 37.05V47.034C51.2346 51.558 49.9346 55.224 47.3346 58.032C44.7346 60.84 39.8986 62.244 32.8266 62.244H23.8566V75.192C23.8566 76.18 23.6226 76.908 23.1546 77.376C22.7386 77.792 22.0366 78 21.0486 78ZM23.7006 36.426V48.204H30.7206C32.2286 48.204 33.2166 47.814 33.6846 47.034C34.1526 46.254 34.3866 45.37 34.3866 44.382V40.248C34.3866 39.26 34.1526 38.376 33.6846 37.596C33.2166 36.816 32.2286 36.426 30.7206 36.426H23.7006ZM67.9948 38.22L64.3288 50.076H76.5748L72.9088 38.22C72.7008 37.752 72.4668 37.414 72.2068 37.206C71.9988 36.998 71.7388 36.894 71.4268 36.894H69.4768C69.1648 36.894 68.8788 36.998 68.6188 37.206C68.4108 37.414 68.2028 37.752 67.9948 38.22ZM63.5488 75.192C63.5488 76.18 63.3148 76.908 62.8468 77.376C62.4308 77.792 61.7288 78 60.7408 78H49.2748C48.2868 78 47.5588 77.792 47.0908 77.376C46.6748 76.908 46.4668 76.18 46.4668 75.192V54.6C46.4668 53.04 46.7008 51.246 47.1688 49.218C47.6888 47.19 48.4688 44.824 49.5088 42.12L56.2948 24.414C56.6068 23.53 57.0748 22.88 57.6988 22.464C58.3748 22.048 59.2328 21.84 60.2728 21.84H81.2548C82.2428 21.84 83.0488 22.048 83.6728 22.464C84.3488 22.88 84.8428 23.53 85.1548 24.414L91.9408 42.12C92.9808 44.824 93.7348 47.19 94.2028 49.218C94.7228 51.246 94.9828 53.04 94.9828 54.6V75.192C94.9828 76.18 94.7488 76.908 94.2808 77.376C93.8648 77.792 93.1628 78 92.1748 78H80.3968C79.3568 78 78.5768 77.792 78.0568 77.376C77.5888 76.908 77.3548 76.18 77.3548 75.192V64.272H63.5488V75.192Z" fill="#021E48"/>
</svg>
